<?xml version="1.0" encoding="UTF-8"?>
<svg width="162px" height="32px" viewBox="0 0 162 32" version="1.1" xmlns="http://www.w3.org/2000/svg" xmlns:xlink="http://www.w3.org/1999/xlink">
    <title>logo-en-dark</title>
    <g id="Symbols" stroke="none" stroke-width="1" fill="none" fill-rule="evenodd">
        <g id="Logo/English-Dark" fill="#FFFFFF" fill-rule="nonzero">
            <g id="logo-en-dark">
                <path d="M90.4894615,12.9926214 C90.7573846,12.9926214 90.8913462,13.104466 90.8913462,13.3281553 L90.8913462,13.4275728 L88.3990385,22.7231068 L88.3990385,22.8225243 C88.3990385,23.071068 88.6358077,23.2264078 89.1062308,23.2916505 C89.5766538,23.3568932 89.8134231,23.4376699 89.8134231,23.527767 C89.8134231,23.6178641 89.7573462,23.6613592 89.6451923,23.7297087 L88.2650769,24.6337864 C87.9934345,24.8315926 87.6667873,24.9401748 87.3304615,24.944466 L80.8566923,24.944466 C80.5887692,24.944466 80.4516923,24.8326214 80.4516923,24.608932 L80.4516923,24.4784466 L83.0094231,14.8815534 C83.0337423,14.8290395 83.0454747,14.7716027 83.0436923,14.7137864 C83.0436923,14.4466019 82.8474231,14.1328155 82.4548846,13.7817476 C82.0623462,13.4306796 81.8660769,13.2100971 81.8660769,13.1603883 C81.8660769,13.0485437 81.9657692,12.9926214 82.1776154,12.9926214 L90.4894615,12.9926214 Z M51.3072692,12.9646602 L57.7405385,12.9646602 C58.0333846,12.9646602 58.1798077,13.0765049 58.1798077,13.3001942 L58.1798077,13.3996117 L55.6875,22.6951456 L55.6875,22.7945631 C55.6906154,23.0493204 55.9242692,23.2046602 56.3884615,23.2699029 C56.8588846,23.3382524 57.0925385,23.4159223 57.0925385,23.5060194 C57.0925385,23.5961165 57.0271154,23.6396117 56.8931538,23.7079612 L55.5473077,24.6120388 C55.2586902,24.8087231 54.9185951,24.916735 54.5690769,24.9227184 L40.1448462,24.9227184 C39.3646419,24.9553267 38.596242,24.7243475 37.9640769,24.2671845 C37.4149217,23.8787933 37.0932078,23.2452763 37.1042308,22.5739806 C37.1031674,22.3564756 37.137898,22.1402703 37.2070385,21.9339806 L39.0575769,14.887767 C39.0807183,14.834965 39.0913774,14.7775644 39.0887308,14.72 C39.0887308,14.4528155 38.8924615,14.1390291 38.4999231,13.7879612 C38.1073846,13.4368932 37.9111154,13.2163107 37.9111154,13.1666019 C37.9111154,13.0547573 38.0139231,12.998835 38.2226538,12.998835 L46.5313846,12.998835 C46.8242308,12.998835 46.9706538,13.1106796 46.9706538,13.3343689 C46.9660275,13.3694636 46.9543736,13.4032725 46.9363846,13.4337864 L44.3848846,22.9902913 L44.3848846,23.0897087 C44.3848846,23.2916505 44.5313077,23.4003883 44.8210385,23.4003883 L47.4722308,23.4003883 C47.8305,23.4003883 48.0423462,23.2636893 48.1108846,22.9933981 L50.6686154,13.3996117 C50.7451201,13.1176227 51.0160477,12.9331091 51.3072692,12.9646602 Z M160.959462,13.6636893 C161.507423,14.0615429 161.827938,14.6996482 161.819478,15.375534 C161.817893,15.5782916 161.794919,15.7803278 161.750769,15.9782524 L159.9345,22.7231068 L159.9345,22.8225243 C159.925154,23.0493204 160.158808,23.2046602 160.632346,23.2699029 C161.102769,23.3382524 161.336423,23.4159223 161.336423,23.5060194 C161.336423,23.5961165 161.280346,23.6396117 161.168192,23.7079612 L159.791192,24.6120388 C159.505447,24.8145264 159.163502,24.923126 158.812962,24.9227196 L152.389038,24.9227196 C152.118,24.9227196 151.984038,24.8108738 151.984038,24.5871845 L151.984038,24.4846602 L154.541769,14.887767 L154.541769,14.7883495 C154.541769,14.5864078 154.407808,14.4776699 154.139885,14.4776699 C153.242654,14.4776699 152.749385,14.6122977 152.660077,14.8815534 L150.102346,24.4784466 C150.037416,24.7614434 149.768132,24.9494231 149.479269,24.9133981 L143.067808,24.9133981 C142.774962,24.9133981 142.631654,24.8015534 142.631654,24.5809709 C142.633535,24.5475461 142.642004,24.5148189 142.656577,24.4846602 L145.214308,14.887767 L145.214308,14.7852427 L145.214308,14.7852427 C145.214308,14.5801942 145.067885,14.4745631 144.778154,14.4745631 C143.880923,14.4745631 143.398038,14.6081553 143.3295,14.8753398 L140.774885,24.472233 C140.697198,24.7551353 140.425684,24.9404647 140.133115,24.9102913 L133.715423,24.9102913 C133.422577,24.9102913 133.276154,24.7984466 133.276154,24.5747573 L133.276154,24.472233 L135.830769,14.8815534 C135.855088,14.8290395 135.866821,14.7716027 135.865038,14.7137864 C135.865038,14.4466019 135.668769,14.1328155 135.276231,13.7817476 C134.883692,13.4306796 134.687423,13.2100971 134.687423,13.1603883 C134.687423,13.0485437 134.799577,12.9926214 135.023885,12.9926214 L158.778692,12.9926214 C159.56138,12.9594846 160.331588,13.1964936 160.959462,13.6636893 Z M78.7662692,13.6605825 C79.3142304,14.0584361 79.6347457,14.6965414 79.6262853,15.3724272 C79.6253423,15.5776066 79.590606,15.7812511 79.5233077,15.9751456 L77.7413077,22.72 L77.7413077,22.8194175 C77.7288462,23.0493204 77.9625,23.2046602 78.4360385,23.2699029 C78.9064615,23.3382524 79.1401154,23.4159223 79.1401154,23.5060194 C79.1401154,23.5961165 79.0840385,23.6396117 78.9718846,23.7079612 L77.5948846,24.6120388 C77.3091393,24.8145264 76.9671941,24.923126 76.6166538,24.9227196 L70.1927308,24.9227196 C69.8998846,24.9227196 69.7534615,24.8108738 69.7534615,24.5871845 C69.7587908,24.5512756 69.7703894,24.516576 69.7877308,24.4846602 L72.3454615,14.887767 L72.3454615,14.7883495 C72.3454615,14.5864078 72.1990385,14.4776699 71.9093077,14.4776699 L69.2581154,14.4776699 C68.8998462,14.4776699 68.6848846,14.6112621 68.6194615,14.8815534 L66.0617308,24.4784466 C65.9829884,24.758842 65.7136244,24.9422908 65.4230769,24.9133981 L58.9866923,24.9133981 C58.6938462,24.9133981 58.5505385,24.8015534 58.5505385,24.5778641 L58.5505385,24.4753398 L61.1082692,14.8784466 C61.1314106,14.8256446 61.1420697,14.768244 61.1394231,14.7106796 C61.1394231,14.4434951 60.9431538,14.1297087 60.5506154,13.7786408 C60.1580769,13.4275728 59.9618077,13.2069903 59.9618077,13.1572816 C59.9618077,13.0454369 60.0739615,12.9895146 60.2982692,12.9895146 L76.5855,12.9895146 C77.3681882,12.9563778 78.1383962,13.1933868 78.7662692,13.6605825 Z M131.643692,13.6419417 C132.191653,14.0397953 132.512169,14.6779006 132.503708,15.3537864 C132.502093,15.5586532 132.468454,15.7620278 132.403846,15.9565049 L130.821231,21.927767 C130.553733,22.8122848 129.966435,23.5662493 129.173192,24.0434951 C128.31863,24.618504 127.309875,24.9227867 126.279,24.9165049 L115.063615,24.9165049 C114.283566,24.9478952 113.515557,24.7170337 112.882846,24.2609709 C112.334447,23.8722547 112.013836,23.2386143 112.026115,22.567767 C112.023991,22.3504298 112.05767,22.1342198 112.125808,21.927767 L113.708423,15.9565049 C113.907808,15.1518447 114.453,14.4528155 115.337769,13.8594175 C116.184623,13.2787144 117.18865,12.9688008 118.216385,12.9708738 L129.475385,12.9708738 C130.253919,12.9401097 131.019416,13.177023 131.643692,13.6419417 Z M110.907692,13.638835 C111.454887,14.0370146 111.774299,14.6752363 111.764423,15.3506796 C111.764646,15.5556857 111.73097,15.7593256 111.664731,15.9533981 L111.396808,17.0283495 C111.33008,17.3185408 111.050162,17.5082516 110.755038,17.463301 L104.309308,17.463301 C104.016462,17.463301 103.870038,17.3514563 103.870038,17.127767 C103.912324,16.7225931 104.017422,16.3264203 104.181577,15.9533981 C104.34675,15.5807313 104.451891,15.1843962 104.493115,14.7790291 C104.493115,14.5770874 104.346692,14.4683495 104.056962,14.4683495 L101.377731,14.4683495 C101.099749,14.4403673 100.84,14.6100339 100.754654,14.8753398 L98.5925769,22.9933981 C98.5947059,23.0265032 98.5947059,23.0597104 98.5925769,23.0928155 C98.5925769,23.2947573 98.739,23.4034951 99.0287308,23.4034951 L101.689269,23.4034951 C102.010154,23.4066019 102.222,23.2699029 102.290538,22.9902913 L102.860654,20.8434951 C102.949348,20.5739254 103.216979,20.4046762 103.499308,20.4396117 L109.926346,20.4396117 C110.219192,20.4396117 110.365615,20.5421359 110.365615,20.7502913 C110.365615,20.7968932 110.262808,21.1883495 110.054077,21.9246602 C109.7882,22.8100119 109.200492,23.5645029 108.406038,24.0403883 C107.551645,24.6157511 106.542777,24.9200676 105.511846,24.9133981 L94.2964615,24.9133981 C93.5164118,24.9447884 92.7484035,24.7139269 92.1156923,24.2578641 C91.5681385,23.8684238 91.2477688,23.2352596 91.2589615,22.5646602 C91.2584011,22.3474386 91.2920414,22.1314759 91.3586538,21.9246602 L92.9412692,15.9533981 C93.1994263,15.0734019 93.7828648,14.323907 94.5737308,13.8563107 C95.4194481,13.275673 96.4224687,12.9657347 97.4492308,12.967767 L108.726923,12.967767 C109.50938,12.9364085 110.279006,13.1732383 110.907692,13.638835 Z M121.481308,14.872233 L119.319231,22.9902913 L119.319231,23.0897087 C119.319231,23.2916505 119.465654,23.4003883 119.755385,23.4003883 L122.400346,23.4066019 C122.758615,23.4066019 122.970462,23.2699029 123.039,22.9996117 L125.219769,14.8815534 C125.21764,14.8484482 125.21764,14.8152411 125.219769,14.7821359 C125.219769,14.5801942 125.073346,14.4714563 124.783615,14.4714563 L122.123077,14.4714563 C121.840797,14.4358261 121.572418,14.6034255 121.481308,14.872233 Z M91.4147308,6.19184466 C91.961106,6.59071462 92.280292,7.22848427 92.2714615,7.90368932 C92.2714615,8.82122977 91.8010385,9.64970874 90.8601923,10.3891262 C89.9518333,11.1160569 88.8190781,11.5068723 87.6544615,11.4951456 C86.8775756,11.5244318 86.1131981,11.2936728 85.4830385,10.8396117 C84.9346393,10.4508955 84.6140286,9.81725505 84.6263077,9.14640777 C84.6263077,8.21436893 85.0998462,7.36621359 86.0562692,6.62990291 C86.9572277,5.90883032 88.0787391,5.51738346 89.2339615,5.5207767 C90.0164184,5.48941818 90.786044,5.72624796 91.4147308,6.19184466 Z" id="Text"></path>
                <ellipse id="Oval" cx="16.0785" cy="15.9254369" rx="5.29615385" ry="5.2815534"></ellipse>
                <path d="M16.0785,0.080776699 C8.42659644,0.0818921681 1.86242547,5.52193762 0.461076923,13.0236893 L4.47369231,17.0252427 L8.03457692,13.4741748 C9.24575099,9.52014506 13.1652826,7.03580875 17.2693919,7.62082584 C21.3735012,8.20584293 24.4381595,11.6857352 24.4900385,15.8198058 L27.6833077,12.632233 L31.9389231,16.8730097 C31.9389231,16.5623301 31.9669615,16.2516505 31.9669615,15.9254369 C31.9669615,11.7231717 30.2930034,7.69302041 27.3133389,4.72157022 C24.3336744,1.75012003 20.292382,0.080776699 16.0785,0.080776699 L16.0785,0.080776699 Z" id="Path"></path>
                <path d="M27.6833077,14.8442718 L24.1255385,18.392233 C22.914584,22.3457644 18.9959119,24.8301073 14.8922305,24.2459259 C10.7885491,23.6617446 7.72342314,20.1832202 7.67007692,16.0497087 L4.47369231,19.2372816 L0.221192308,14.9965049 C0.2025,15.3071845 0.190038462,15.6178641 0.190038462,15.9285437 C0.194846052,24.1105769 6.44595401,30.9433712 14.6157639,31.6966308 C22.7855738,32.4498903 30.1869291,26.8758582 31.6959231,18.8333981 L27.6833077,14.8318447 L27.6833077,14.8442718 Z" id="Path"></path>
            </g>
        </g>
    </g>
</svg>