<?xml version="1.0" encoding="UTF-8"?>
<svg width="24px" height="24px" viewBox="0 0 24 24" version="1.1" xmlns="http://www.w3.org/2000/svg" xmlns:xlink="http://www.w3.org/1999/xlink">
    <title>Logo-Icon</title>
    <g id="Symbols" stroke="none" stroke-width="1" fill="none" fill-rule="evenodd">
        <g id="BE-Footer" transform="translate(-1132.000000, -8.000000)" fill="#FFFFFF" fill-rule="nonzero">
            <g id="Logo-Icon">
                <path d="M1152.77489,19.1673679 L1155.80696,22.1999569 C1154.66671,28.2949589 1149.07399,32.5192554 1142.90059,31.9483954 C1136.72719,31.3775355 1132.00363,26.1992823 1132,19.9985045 C1132,19.763055 1132.00942,19.5276056 1132.02119,19.2921561 L1132.02119,19.2921561 L1135.23688,22.5060412 L1137.65218,20.0903298 C1137.69608,23.2200198 1140.01118,25.8520632 1143.10923,26.2944654 C1146.20728,26.7368675 1149.16633,24.8579729 1150.08416,21.8656187 L1150.08416,21.8656187 L1152.77018,19.1885584 L1152.77489,19.1673679 Z M1144.00118,16.0052818 C1146.2114,16.0052818 1148.00314,17.7973251 1148.00314,20.0079225 C1148.00314,22.2185199 1146.2114,24.0105632 1144.00118,24.0105632 C1141.79095,24.0105632 1139.99922,22.2185199 1139.99922,20.0079225 C1139.99922,17.7973251 1141.79095,16.0052818 1144.00118,16.0052818 Z M1143.996,8 L1144.29924,8.00380237 C1150.7889,8.16571659 1156,13.4781578 1156,20.0079225 C1156,20.2551444 1155.99058,20.4905938 1155.97646,20.7260433 L1155.97646,20.7260433 L1152.76312,17.5121583 L1150.34782,19.9278697 C1150.30862,16.7948521 1147.99285,14.1576056 1144.89164,13.7142487 C1141.79043,13.2708918 1138.82869,15.1536533 1137.91349,18.1502263 L1137.91349,18.1502263 L1135.22511,20.8414135 L1132.19304,17.8088246 C1133.25227,12.1218555 1138.215,7.99857746 1143.99882,8 L1143.996,8 Z"></path>
            </g>
        </g>
    </g>
</svg>