<?xml version="1.0" encoding="UTF-8"?>
<svg width="32px" height="32px" viewBox="0 0 32 32" version="1.1" xmlns="http://www.w3.org/2000/svg" xmlns:xlink="http://www.w3.org/1999/xlink">
    <title>Logo/Shape-Light</title>
    <defs>
        <linearGradient x1="3.5759574e-14%" y1="50%" x2="100%" y2="50%" id="linearGradient-1">
            <stop stop-color="#F8D14C" offset="0%"></stop>
            <stop stop-color="#E2B224" offset="99%"></stop>
        </linearGradient>
        <linearGradient x1="0.0261432018%" y1="50.4319062%" x2="99.9904536%" y2="50.4319062%" id="linearGradient-2">
            <stop stop-color="#F8D14C" offset="0%"></stop>
            <stop stop-color="#E2B224" offset="99%"></stop>
        </linearGradient>
        <linearGradient x1="0.0494270991%" y1="50.4319062%" x2="100.042075%" y2="50.4319062%" id="linearGradient-3">
            <stop stop-color="#F8D14C" offset="0%"></stop>
            <stop stop-color="#E2B224" offset="99%"></stop>
        </linearGradient>
    </defs>
    <g id="Logo/Shape-Light" stroke="none" stroke-width="1" fill="none" fill-rule="evenodd">
        <g id="Logo-Shape">
            <circle id="Oval" fill="url(#linearGradient-1)" fill-rule="nonzero" cx="15.896" cy="15.896" r="15.896"></circle>
            <path d="M15.896,0.636 C7.46813472,0.636 0.636,7.46813472 0.636,15.896 C0.636,24.3238653 7.46813472,31.156 15.896,31.156 C24.3238653,31.156 31.156,24.3238653 31.156,15.896 C31.156,11.8487964 29.5482546,7.96735565 26.6864495,5.10555052 C23.8246443,2.24374538 19.9432036,0.636 15.896,0.636 Z M15.896,30.8520005 C7.63602928,30.8520005 0.94,24.1559707 0.94,15.896 C0.94,7.63602928 7.63602928,0.94 15.896,0.94 C24.1559707,0.94 30.8520005,7.63602928 30.8520005,15.896 C30.8530614,19.8629031 29.2776853,23.6676369 26.4726611,26.4726611 C23.6676369,29.2776853 19.8629031,30.8530614 15.896,30.8520005 L15.896,30.8520005 Z" id="Shape" fill="#000000" fill-rule="nonzero"></path>
            <path d="M13.4,16.748 C13.292,16.9 13.168,17.04 13.028,17.256 C13.1880475,17.1523642 13.3243642,17.0160475 13.428,16.856 C13.4148999,16.9608273 13.4082208,17.0663575 13.408,17.172 C13.4056505,17.2941275 13.4163783,17.4161557 13.44,17.536 C13.4466625,17.5866237 13.4629558,17.6355036 13.488,17.68 C13.5089935,17.7200581 13.5449195,17.750236 13.588,17.764 L13.588,17.764 C13.776,17.828 13.912,17.628 13.892,17.48 C13.804,17.572 13.736,17.696 13.612,17.668 C13.612,17.668 13.588,17.668 13.572,17.628 C13.5545455,17.592645 13.5424144,17.5549036 13.536,17.516 C13.5155956,17.4025045 13.5062185,17.2873013 13.508,17.172 C13.508,16.92 13.508,16.892 13.508,16.772 L13.508,16.628 L13.396,16.756 L13.4,16.748 Z M12.96,18.348 C12.8984034,18.4474235 12.8316455,18.5435549 12.76,18.636 C12.7207772,18.4432605 12.6940548,18.2481871 12.68,18.052 C12.5979672,18.2849902 12.5979672,18.5390098 12.68,18.772 L12.716,18.836 L12.764,18.78 C12.8603463,18.6523667 12.9485224,18.5187666 13.028,18.38 C13.1863498,18.163967 13.2641743,17.8993636 13.248,17.632 C13.1783928,17.8778662 13.0761494,18.113295 12.944,18.332 L12.96,18.348 Z M14.268,18.84 C14.1611896,18.9722881 14.0448816,19.0966173 13.92,19.212 C13.7889605,19.0334473 13.7188396,18.8174747 13.72,18.596 C13.72,18.348 13.688,18.128 13.688,18.128 C13.6373229,18.2799433 13.6156138,18.4400482 13.624,18.6 C13.6124217,18.8660832 13.7057884,19.1260734 13.884,19.324 L13.92,19.352 L13.952,19.32 C14.0949962,19.196693 14.228693,19.0629962 14.352,18.92 C14.492,18.728 14.676,18.468 14.56,18.26 C14.5271829,18.4838152 14.4282933,18.6927368 14.276,18.86 L14.268,18.84 Z M14.876,19.84 C14.876,19.84 14.876,19.84 14.876,19.84 C14.8507024,19.7986059 14.8305533,19.7542779 14.816,19.708 C14.7772155,19.577161 14.7491231,19.4433878 14.732,19.308 C14.688,19.016 14.624,18.732 14.624,18.732 C14.6030804,18.9287789 14.6030804,19.1272211 14.624,19.324 C14.6444887,19.4673514 14.6752343,19.6090483 14.716,19.748 C14.7322752,19.8025584 14.7551087,19.854941 14.784,19.904 C14.8080088,19.9455693 14.8464382,19.9768821 14.892,19.992 L14.936,19.992 L14.936,19.952 C14.9924453,19.7985747 15.0169464,19.635234 15.008,19.472 C14.948,19.608 14.908,19.736 14.864,19.872 L14.876,19.84 Z M12.364,20.064 C12.305771,20.135368 12.2369768,20.1974176 12.16,20.248 L12.116,19.952 L12.052,20.14 L12.08,20.404 L12.14,20.376 C12.2560127,20.3148768 12.3581471,20.2304456 12.44,20.128 C12.667825,19.858253 12.8000248,19.5207216 12.816,19.168 C12.7319044,19.4958404 12.5776918,19.8015363 12.364,20.064 L12.364,20.064 Z" id="Shape" fill="#000000" fill-rule="nonzero"></path>
            <path d="M12.78,19.72 C12.7848295,19.8945453 12.8035554,20.0684286 12.836,20.24 C12.8482331,20.3079619 12.8697688,20.373915 12.9,20.436 C12.9205973,20.4879092 12.9608452,20.5295945 13.012,20.552 L13.012,20.552 C13.0380636,20.5600205 13.0659364,20.5600205 13.092,20.552 C13.1215297,20.5404601 13.1496994,20.5257046 13.176,20.508 C13.2506891,20.4575622 13.3180006,20.3969819 13.376,20.328 C13.5625462,20.1229402 13.673958,19.8606288 13.692,19.584 C13.5993416,19.8322586 13.4639678,20.062394 13.292,20.264 C13.2396007,20.326467 13.1790612,20.3816252 13.112,20.428 L13.048,20.46 L13.048,20.46 C13.0240813,20.444987 13.0057988,20.4224855 12.996,20.396 C12.9708907,20.3409682 12.952104,20.2832661 12.94,20.224 C12.9107182,20.0574483 12.8933409,19.8890218 12.888,19.72 C12.888,19.356 12.836,18.996 12.836,18.996 C12.7964641,19.2365398 12.7803886,19.4803515 12.788,19.724 L12.78,19.72 Z M14.604,20.52 C14.549471,20.6597855 14.4811326,20.7937824 14.4,20.92 C14.377767,20.9612998 14.3462791,20.9968948 14.308,21.024 C14.284,21.024 14.276,21.024 14.268,21.024 C14.2427892,21.0032548 14.2223278,20.977337 14.208,20.948 C14.1803778,20.8955222 14.1576162,20.8406266 14.14,20.784 C14.1,20.652 14.064,20.484 14.032,20.316 C13.976,19.988 13.896,19.676 13.896,19.676 C13.8861277,19.8967942 13.899535,20.1180141 13.936,20.336 C13.9625878,20.4983185 14.0000046,20.6586766 14.048,20.816 C14.0650065,20.8785664 14.0891658,20.9389647 14.12,20.996 C14.1424149,21.0441121 14.1786113,21.084485 14.224,21.112 L14.224,21.112 C14.2725902,21.1326232 14.328725,21.1232674 14.368,21.088 C14.4134313,21.0519907 14.4526223,21.0087454 14.484,20.96 C14.5645878,20.832166 14.6354541,20.6984561 14.696,20.56 C14.7807429,20.3527231 14.8424467,20.1367597 14.88,19.916 C14.88,19.916 14.732,20.22 14.604,20.52 L14.604,20.52 Z M13.552,22 C13.5052725,22.0715553 13.4487193,22.1361875 13.384,22.192 C13.3658656,22.2127042 13.342317,22.2279415 13.316,22.236 L13.28,22.236 L13.28,22.236 C13.28,22.236 13.28,22.236 13.252,22.184 C13.2322735,22.1291324 13.2162377,22.0730072 13.204,22.016 C13.176,21.876 13.152,21.688 13.132,21.504 C13.096,21.14 13.032,20.78 13.032,20.78 C13.0098267,21.0248323 13.0098267,21.2711677 13.032,21.516 C13.0456293,21.6906118 13.069672,21.8642541 13.104,22.036 C13.1168642,22.0998179 13.1342411,22.1626424 13.156,22.224 C13.156,22.272 13.196,22.316 13.248,22.332 C13.281206,22.346232 13.318794,22.346232 13.352,22.332 C13.3882613,22.3198027 13.4211463,22.2992495 13.448,22.272 C13.5195128,22.2097021 13.5826997,22.1384487 13.636,22.06 C13.7345349,21.9206391 13.803921,21.7628199 13.84,21.596 C13.764,21.704 13.668,21.848 13.552,21.996 L13.552,22 Z M14.292,22.552 C14.2550853,22.5019963 14.2291833,22.4447393 14.216,22.384 C14.1834645,22.2525334 14.1607354,22.1188326 14.148,21.984 C14.12,21.7 14.072,21.428 14.072,21.428 C14.0406211,21.6156539 14.0338975,21.8066037 14.052,21.996 C14.0643405,22.1308844 14.0870747,22.264615 14.12,22.396 C14.1407847,22.5011296 14.1973185,22.5958237 14.28,22.664 C14.297536,22.67804 14.322464,22.67804 14.34,22.664 C14.4266398,22.5097605 14.4912666,22.3441542 14.532,22.172 L14.292,22.552 Z M11.492,22.824 C11.4980916,22.9138459 11.5155646,23.0025551 11.544,23.088 C11.572,23.168 11.604,23.24 11.676,23.264 C11.7195094,23.2729561 11.7646056,23.2594272 11.796,23.228 C11.8299353,23.1939993 11.8582849,23.1548498 11.88,23.112 C11.9419932,23.0007433 11.99419,22.8843043 12.036,22.764 C12.0969936,22.5920639 12.1372777,22.413471 12.156,22.232 C12.156,22.232 12.036,22.48 11.944,22.728 C11.9029021,22.8434496 11.8534375,22.9557476 11.796,23.064 C11.7769577,23.0971868 11.7541393,23.1280588 11.728,23.156 C11.708,23.156 11.708,23.156 11.708,23.156 L11.708,23.156 C11.6724302,23.1292225 11.647037,23.0911327 11.636,23.048 C11.6142756,22.9665448 11.598237,22.8836786 11.588,22.8 C11.5731715,22.68229 11.5490971,22.5659303 11.516,22.452 C11.487005,22.5696725 11.4788819,22.6915199 11.492,22.812 L11.492,22.824 Z M13.06,23.048 C12.999927,23.1597704 12.9274714,23.2644285 12.844,23.36 C12.8162912,23.3925551 12.7839451,23.4208579 12.748,23.444 C12.728682,23.4513864 12.707318,23.4513864 12.688,23.444 C12.6655886,23.4345705 12.6471894,23.4175867 12.636,23.396 C12.6091994,23.3556613 12.5864235,23.312789 12.568,23.268 C12.5231794,23.1375152 12.4884112,23.0037913 12.464,22.868 C12.408,22.588 12.332,22.324 12.332,22.324 C12.3217459,22.5127617 12.3338297,22.7020739 12.368,22.888 C12.3936707,23.0239098 12.4297776,23.1576391 12.476,23.288 C12.4964209,23.3397052 12.5218767,23.3892771 12.552,23.436 C12.5777314,23.476067 12.6155616,23.5068916 12.66,23.524 L12.66,23.524 C12.7059725,23.5325743 12.7534674,23.5224997 12.792,23.496 C12.8378256,23.468657 12.8795693,23.4349927 12.916,23.396 C13.001628,23.2922631 13.0779245,23.1811646 13.144,23.064 C13.236,22.856 13.388,22.64 13.312,22.432 C13.2509511,22.6364329 13.1649714,22.8325742 13.056,23.016 L13.06,23.048 Z M13.952,23.42 C13.870605,23.5235553 13.7434468,23.5804025 13.612,23.572 L13.612,23.572 C13.5773479,23.5504005 13.5506701,23.5181063 13.536,23.48 C13.468,23.32 13.44,23.16 13.372,22.984 C13.3441348,23.1675599 13.3705522,23.3552619 13.448,23.524 C13.4698737,23.5910753 13.5215673,23.6442459 13.588,23.668 C13.7537759,23.6870672 13.917917,23.6208084 14.024,23.492 C14.1681316,23.3633352 14.2473323,23.1770668 14.24,22.984 C14.1696763,23.1447535 14.0722596,23.2922316 13.952,23.42 L13.952,23.42 Z M11.868,21.352 C11.8738035,21.5011237 11.8911892,21.6495708 11.92,21.796 C11.9301065,21.8532252 11.9489961,21.9085447 11.976,21.96 C11.9957057,22.0051433 12.033427,22.039963 12.08,22.056 L12.08,22.056 C12.1648942,22.0672693 12.2510768,22.0489025 12.324,22.004 C12.416782,21.9490172 12.5027155,21.8832244 12.58,21.808 C12.7562401,21.6459698 12.8719434,21.4286733 12.908,21.192 C12.7977793,21.3892435 12.6634108,21.5719845 12.508,21.736 C12.4414454,21.807082 12.3645873,21.8677594 12.28,21.916 C12.2284398,21.9509659 12.1656083,21.9652458 12.104,21.956 C12.104,21.956 12.08,21.956 12.064,21.912 C12.0414068,21.8678606 12.0252432,21.8207165 12.016,21.772 C11.9883525,21.6308814 11.9722989,21.4877371 11.968,21.344 C11.968,21.036 11.916,20.732 11.916,20.732 C11.8787562,20.9351229 11.8626703,21.1415597 11.868,21.348 L11.868,21.352 Z" id="Shape" fill="#000000" fill-rule="nonzero"></path>
            <path d="M13.376,15.348 L11.172,23.224 C11.172,23.224 12.916,23.864 14.244,23.744 L15.348,18.068 L13.376,15.348 Z" id="Path" stroke-opacity="0.99" stroke="#000000" stroke-width="0.46"></path>
            <path d="M18.324,17.2 C18.424,17.344 18.54,17.476 18.672,17.676 C18.5214735,17.5820383 18.3931768,17.4564713 18.296,17.308 C18.3018556,17.4065798 18.3018556,17.5054202 18.296,17.604 C18.299452,17.7193502 18.290061,17.8347264 18.268,17.948 C18.2599926,17.9939466 18.2451621,18.0384382 18.224,18.08 C18.2041672,18.1185772 18.1695212,18.1474488 18.128,18.16 L18.128,18.16 C17.956,18.22 17.824,18.032 17.844,17.892 C17.924,17.98 17.988,18.096 18.104,18.068 C18.104,18.068 18.128,18.068 18.144,18.032 C18.1591193,17.9984929 18.1711686,17.9636837 18.18,17.928 C18.1970079,17.8208567 18.2050358,17.7124799 18.204,17.604 C18.204,17.372 18.204,17.344 18.204,17.204 C18.204,17.156 18.204,17.068 18.204,17.068 L18.324,17.2 Z M18.724,18.712 C18.7797842,18.8059687 18.8426319,18.8955603 18.912,18.98 C18.9479439,18.8003079 18.9733208,18.6186629 18.988,18.436 C19.0642232,18.6535157 19.0642232,18.8904843 18.988,19.108 L18.956,19.172 L18.912,19.116 C18.8220672,19.002564 18.7392422,18.88367 18.664,18.76 C18.5155048,18.5563669 18.4420167,18.3076381 18.456,18.056 C18.5198663,18.2867509 18.6154445,18.5075231 18.74,18.712 L18.724,18.712 Z M17.524,19.156 C17.6230655,19.2812535 17.7313681,19.3989156 17.848,19.508 C17.9728245,19.3406432 18.0389106,19.1367606 18.036,18.928 C18.036,18.696 18.068,18.492 18.068,18.492 C18.1141127,18.6352842 18.1344278,18.7856157 18.128,18.936 C18.1370246,19.1851117 18.0479817,19.4278255 17.88,19.612 L17.848,19.636 L17.828,19.6 C17.6954289,19.4761305 17.5724117,19.3424162 17.46,19.2 C17.328,19.02 17.156,18.776 17.264,18.584 C17.2957325,18.7919605 17.3890846,18.9856313 17.532,19.14 L17.524,19.156 Z M16.952,20.092 C16.952,20.092 16.952,20.092 16.952,20.092 C16.9768164,20.053729 16.9956969,20.0119221 17.008,19.968 C17.044583,19.8368431 17.0713239,19.7031383 17.088,19.568 C17.128,19.292 17.188,19.028 17.188,19.028 C17.2090188,19.2113997 17.2090188,19.3966003 17.188,19.58 C17.1707735,19.7153704 17.1426828,19.8491354 17.104,19.98 C17.0873268,20.0312205 17.0659002,20.0807696 17.04,20.128 C17.0174021,20.1683126 16.9801646,20.198389 16.936,20.212 L16.9,20.212 L16.9,20.176 C16.8477938,20.0326677 16.8246769,19.880368 16.832,19.728 C16.888,19.856 16.924,19.976 16.964,20.08 L16.952,20.092 Z M19.304,20.304 C19.3592521,20.3704067 19.4239397,20.428356 19.496,20.476 L19.536,20.2 L19.596,20.376 L19.572,20.624 L19.516,20.596 C19.4065397,20.5387871 19.3099025,20.459844 19.232,20.364 C19.021386,20.109394 18.8980072,19.7939367 18.88,19.464 C18.9644105,19.7696317 19.1115326,20.0543402 19.312,20.3 L19.304,20.304 Z" id="Shape" fill="#000000" fill-rule="nonzero"></path>
            <path d="M18.904,19.976 C18.8984976,20.1410355 18.8811194,20.3054606 18.852,20.468 C18.8405101,20.5305091 18.8203136,20.5910988 18.792,20.648 C18.7742379,20.6971321 18.7364271,20.7363972 18.688,20.756 L18.688,20.756 C18.6632911,20.7639548 18.6367089,20.7639548 18.612,20.756 L18.536,20.712 C18.4662488,20.6644718 18.4030417,20.6079889 18.348,20.544 C18.1735485,20.3520952 18.0692168,20.1067747 18.052,19.848 C18.1357173,20.0794193 18.2588693,20.2945971 18.416,20.484 C18.4665794,20.5418314 18.524387,20.5929171 18.588,20.636 L18.644,20.668 L18.644,20.668 C18.644,20.668 18.676,20.648 18.696,20.608 C18.7171541,20.5563506 18.7332299,20.5027646 18.744,20.448 C18.7733928,20.2908836 18.7907764,20.1317567 18.796,19.972 C18.796,19.632 18.844,19.3 18.844,19.3 C18.8809501,19.5233279 18.8956887,19.7497666 18.888,19.976 L18.904,19.976 Z M17.196,20.732 C17.2500675,20.8608797 17.3142687,20.9852694 17.388,21.104 C17.4098263,21.1397416 17.4367802,21.1720863 17.468,21.2 C17.492,21.2 17.5,21.2 17.508,21.2 C17.533136,21.1835428 17.5526681,21.1598253 17.564,21.132 C17.5905129,21.0836735 17.6119602,21.0327362 17.628,20.98 C17.6705011,20.8355687 17.7039,20.6886134 17.728,20.54 C17.78,20.232 17.856,19.94 17.856,19.94 C17.8637225,20.1460121 17.8516673,20.3522899 17.82,20.556 C17.794105,20.7085514 17.7593799,20.8594717 17.716,21.008 C17.6984971,21.0665668 17.6743394,21.1229346 17.644,21.176 C17.6255992,21.2208679 17.5933718,21.2587001 17.552,21.284 L17.552,21.284 C17.5076232,21.3017159 17.457137,21.2940664 17.42,21.264 C17.3770903,21.2308054 17.3405069,21.1901571 17.312,21.144 C17.2351226,21.0160212 17.1682566,20.8822892 17.112,20.744 C17.0324845,20.5510353 16.9747928,20.3497852 16.94,20.144 C16.94,20.144 17.076,20.424 17.196,20.708 L17.196,20.732 Z M18.18,22.12 C18.2251045,22.1868381 18.278911,22.2473704 18.34,22.3 C18.3590475,22.3177416 18.3806141,22.3325687 18.404,22.344 L18.44,22.344 C18.44,22.344 18.44,22.344 18.468,22.292 C18.4863624,22.241114 18.5010665,22.1889813 18.512,22.136 C18.54,22.004 18.56,21.828 18.58,21.656 C18.612,21.312 18.672,20.976 18.672,20.976 C18.690643,21.20629 18.690643,21.43771 18.672,21.668 C18.6565296,21.8304874 18.6324962,21.9920453 18.6,22.152 C18.5907633,22.212305 18.5746586,22.2713555 18.552,22.328 C18.552,22.376 18.516,22.416 18.468,22.428 C18.4357369,22.4399457 18.4002631,22.4399457 18.368,22.428 C18.335583,22.4146896 18.3057872,22.3957286 18.28,22.372 C18.2143184,22.3133234 18.1552962,22.2475941 18.104,22.176 C18.0134451,22.0438702 17.9483315,21.896008 17.912,21.74 L18.18,22.12 L18.18,22.12 Z M17.492,22.636 C17.5229526,22.5880189 17.5459175,22.5353347 17.56,22.48 C17.5891413,22.3561215 17.6105163,22.2305436 17.624,22.104 C17.648,21.836 17.696,21.58 17.696,21.58 C17.7249523,21.7557927 17.7316718,21.9345297 17.716,22.112 C17.7032065,22.2468249 17.6804781,22.3805215 17.648,22.512 C17.6322167,22.6116603 17.5793518,22.7016736 17.5,22.764 C17.5,22.764 17.456,22.764 17.444,22.764 C17.3635974,22.619454 17.3030519,22.4647267 17.264,22.304 L17.492,22.636 Z M20.108,22.892 C20.1007695,22.9761252 20.0846804,23.0592523 20.06,23.14 C20.032,23.212 20,23.28 19.936,23.3 C19.8956348,23.3132019 19.8512977,23.3005342 19.824,23.268 C19.7923181,23.2360004 19.7653784,23.1996318 19.744,23.16 C19.6870013,23.0556686 19.6375416,22.9473921 19.596,22.836 C19.5398993,22.6740992 19.5023262,22.5063623 19.484,22.336 C19.484,22.336 19.596,22.568 19.684,22.804 C19.7221564,22.9116133 19.7689765,23.0159553 19.824,23.116 C19.8405341,23.1473512 19.8621619,23.1757376 19.888,23.2 L19.888,23.2 L19.888,23.2 C19.919575,23.1744548 19.9420284,23.1393714 19.952,23.1 C19.9742583,23.0243013 19.9889963,22.9465918 19.996,22.868 C20.010869,22.757194 20.0335929,22.6475847 20.064,22.54 C20.0904998,22.6512643 20.098607,22.7661163 20.088,22.88 L20.108,22.892 Z M18.64,23.1 C18.6943357,23.2052291 18.7615153,23.3033113 18.84,23.392 C18.8663987,23.423211 18.8974257,23.450191 18.932,23.472 C18.9498003,23.480043 18.9701997,23.480043 18.988,23.472 C18.988,23.472 19.016,23.472 19.036,23.428 C19.0626134,23.3916633 19.0828987,23.3510927 19.096,23.308 C19.1384855,23.1907323 19.1719168,23.0703795 19.196,22.948 C19.248,22.684 19.32,22.436 19.32,22.436 C19.3303002,22.6126462 19.3195581,22.7898906 19.288,22.964 C19.2650176,23.100101 19.2302194,23.2339406 19.184,23.364 C19.1657069,23.4133877 19.1415329,23.4603928 19.112,23.504 C19.0896006,23.5420236 19.0540131,23.5704935 19.012,23.584 L19.012,23.584 C18.9678333,23.5922561 18.9221758,23.5836953 18.884,23.56 C18.8428354,23.5327614 18.8052139,23.5005144 18.772,23.464 C18.6881414,23.3687306 18.6156539,23.2640265 18.556,23.152 C18.468,22.96 18.328,22.752 18.4,22.56 C18.456831,22.7519616 18.5374572,22.9360582 18.64,23.108 L18.64,23.1 Z M17.804,23.452 C17.8826961,23.544114 17.9989004,23.5955969 18.12,23.592 L18.12,23.592 C18.14,23.592 18.168,23.56 18.192,23.508 C18.256,23.356 18.284,23.204 18.348,23.044 C18.3730082,23.2154282 18.3480077,23.3904312 18.276,23.548 C18.2553242,23.6103825 18.2063825,23.6593242 18.144,23.68 C17.9915787,23.6960269 17.8413009,23.634413 17.744,23.516 C17.6108876,23.3956101 17.5364769,23.2234442 17.54,23.044 C17.6105493,23.189957 17.7021982,23.3247348 17.812,23.444 L17.804,23.452 Z M19.752,21.504 C19.7448156,21.638244 19.7287808,21.7718676 19.704,21.904 C19.6909101,21.9573196 19.6735198,22.0094904 19.652,22.06 C19.6335366,22.1036829 19.5970674,22.1372345 19.552,22.152 L19.552,22.152 C19.4727303,22.1630089 19.3921027,22.1460346 19.324,22.104 C19.237176,22.0539153 19.1577471,21.9919877 19.088,21.92 C18.9208922,21.7701153 18.8118574,21.5662061 18.78,21.344 C18.8840766,21.5282896 19.0088875,21.7000723 19.152,21.856 C19.2156564,21.920863 19.28842,21.9761095 19.368,22.02 C19.4154606,22.0506183 19.4717144,22.0646817 19.528,22.06 C19.528,22.06 19.552,22.06 19.568,22.016 C19.5886989,21.9742459 19.6035067,21.9298226 19.612,21.884 C19.6385107,21.752237 19.6532355,21.6183751 19.656,21.484 C19.656,21.196 19.704,20.912 19.704,20.912 C19.7409694,21.1016734 19.7570653,21.2948237 19.752,21.488 L19.752,21.504 Z" id="Shape" fill="#000000" fill-rule="nonzero"></path>
            <path d="M18.348,15.888 L20.408,23.256 C19.486678,23.5914558 18.5124399,23.7581196 17.532,23.748 L16.504,18.432 L18.348,15.888 Z" id="Path" stroke-opacity="0.99" stroke="#000000" stroke-width="0.46"></path>
            <path d="M19.352,11.892 L19.244,11.892 C18.444,11.892 16.628,11.492 15.924,10.88 C15.184,11.44 13.324,11.892 12.552,11.892 C12.5161073,11.895931 12.4798927,11.895931 12.444,11.892 C12.444,12.068 12.444,12.252 12.444,12.42 C12.4890451,13.043489 12.5948809,13.6610877 12.76,14.264 C13.2689381,16.1291905 14.3624541,17.7820818 15.88,18.98 C17.3972047,17.7800764 18.4905384,16.1260588 19,14.26 C19.1669694,13.6575 19.2728369,13.0397162 19.316,12.416 C19.316,12.252 19.316,12.072 19.316,11.9 L19.352,11.892 Z" id="Path"></path>
            <path d="M19.352,11.892 L19.244,11.892 C18.444,11.892 16.628,11.492 15.924,10.88 C15.184,11.44 13.324,11.892 12.552,11.892 C12.5161073,11.895931 12.4798927,11.895931 12.444,11.892 C12.444,12.068 12.444,12.252 12.444,12.42 C12.4890451,13.043489 12.5948809,13.6610877 12.76,14.264 C13.2689381,16.1291905 14.3624541,17.7820818 15.88,18.98 C17.3972047,17.7800764 18.4905384,16.1260588 19,14.26 C19.1669694,13.6575 19.2728369,13.0397162 19.316,12.416 C19.316,12.252 19.316,12.072 19.316,11.9 L19.352,11.892 Z" id="Path"></path>
            <path d="M15.896,27.452 C20.268,27.452 22.384,26.468 22.384,26.468 L22.324,26.036 C22.4075857,25.9947903 22.4964056,25.9651836 22.588,25.948 C22.792,25.892 22.864,25.488 22.848,25.308 C22.8626901,25.0781275 22.943229,24.8573399 23.08,24.672 C22.9004762,24.6128005 22.7336076,24.5205479 22.588,24.4 C22.376,24.168 22.168,23.94 21.836,24.112 C21.708,24.18 21.776,23.576 21.776,23.576 C21.776,23.576 19.776,24.56 15.904,24.504 C12.032,24.448 10.016,23.576 10.016,23.576 C10.016,23.576 10.088,24.18 9.96,24.112 C9.628,23.94 9.416,24.168 9.208,24.4 C9.06164107,24.5204136 8.89505228,24.6138659 8.716,24.676 C8.85134411,24.861788 8.9304812,25.0825388 8.944,25.312 C8.944,25.492 9.004,25.896 9.208,25.952 C9.29826102,25.9693892 9.38573209,25.9989948 9.468,26.04 L9.408,26.472 C9.408,26.472 11.52,27.452 15.896,27.452 Z" id="Path" stroke="#000000" stroke-width="0.46" fill="#FFFFFF" fill-rule="nonzero"></path>
            <path d="M15.924,27.2 C20.092,27.2 22.164,26.308 22.164,26.308 L22.104,25.908 C22.1862083,25.8432823 22.2842932,25.801838 22.388,25.788 C22.576,25.744 22.648,25.452 22.632,25.324 C22.616,25.196 22.76,24.792 22.884,24.744 C22.7444964,24.7311577 22.6087301,24.6917854 22.484,24.628 C22.32,24.488 22.136,24.124 21.648,24.328 C21.588,24.36 21.568,23.928 21.568,23.928 C21.568,23.928 19.628,24.86 15.932,24.8 C12.236,24.74 10.268,23.972 10.268,23.972 C10.268,23.972 10.34,24.344 10.212,24.304 C9.756,24.152 9.644,24.38 9.412,24.572 C9.28292833,24.6456937 9.14932878,24.7111575 9.012,24.768 C9.096,24.828 9.112,24.98 9.148,25.092 C9.184,25.204 9.112,25.592 9.276,25.7 C9.40424511,25.7621254 9.53820323,25.8116899 9.676,25.848 L9.62,26.312 C9.62,26.312 11.756,27.2 15.924,27.2 Z" id="Path" stroke="#000000" stroke-width="0.46" fill="#008C56" fill-rule="nonzero"></path>
            <path d="M21.432,24.156 C21.4353287,24.2128368 21.4447152,24.2691559 21.46,24.324 C21.4668171,24.3571062 21.4804383,24.3884349 21.5,24.416 C21.5215395,24.4466459 21.5504204,24.4714009 21.584,24.488 C21.6354431,24.5080813 21.6925569,24.5080813 21.744,24.488 L21.744,24.488 C21.948,24.404 22.032,24.436 22.12,24.488 C22.217721,24.5698182 22.3111773,24.6565991 22.4,24.748 C22.4580367,24.7972075 22.5263859,24.8327491 22.6,24.852 C22.5842924,24.8788064 22.5709101,24.9069091 22.56,24.936 C22.5325583,25.0023141 22.509835,25.0704837 22.492,25.14 C22.4797675,25.2047608 22.4797675,25.2712392 22.492,25.336 L22.492,25.336 C22.4929532,25.3961954 22.482081,25.4559926 22.46,25.512 C22.4464935,25.5540131 22.4180236,25.5896006 22.38,25.612 L22.38,25.612 C22.2864839,25.6287671 22.1960972,25.6597954 22.112,25.704 C22.0750586,25.7260641 22.0402429,25.7515063 22.008,25.78 L21.952,25.84 L22,26.188 C21.7,26.308 19.764,27.02 15.952,27.02 C14.3823426,27.0346902 12.8153644,26.8872414 11.276,26.58 C10.756,26.468 10.364,26.36 10.104,26.276 L9.844,26.188 L9.9,25.716 L9.756,25.676 L9.612,25.632 C9.54350983,25.6085567 9.47668963,25.5804922 9.412,25.548 C9.412,25.548 9.412,25.548 9.412,25.524 C9.40813211,25.4827572 9.40813211,25.4412428 9.412,25.4 C9.42098918,25.2781411 9.41291111,25.1556238 9.388,25.036 L9.388,25.036 C9.388,24.996 9.364,24.928 9.34,24.852 L9.34,24.852 C9.42731225,24.8140886 9.51042919,24.7671677 9.588,24.712 L9.588,24.712 C9.67985563,24.6243271 9.77740124,24.5428164 9.88,24.468 C9.956,24.428 10.028,24.408 10.228,24.468 L10.228,24.468 C10.3427316,24.5055149 10.4665561,24.4453716 10.508,24.332 C10.5205171,24.2957794 10.5285764,24.2581692 10.532,24.22 C12.3039319,24.7574631 14.1485697,25.016549 16,24.988 C19.156,25.028 20.988,24.372 21.504,24.156 L21.432,24.156 Z" id="Path" fill="#00A968" fill-rule="nonzero"></path>
            <path d="M21.6,25.504 L21.512,25.528 C21.5195353,25.5449833 21.5289257,25.5610811 21.54,25.576 L21.54,25.6 L21.564,25.624 C21.589108,25.6553963 21.6204286,25.6812698 21.656,25.7 C21.6335218,25.7041334 21.6104782,25.7041334 21.588,25.7 L21.552,25.7 L21.512,25.7 C21.4628384,25.6760942 21.4243378,25.6347417 21.404,25.584 L20.66,25.804 L20.612,25.636 L21.324,25.424 L21.292,25.36 C21.2725093,25.3280492 21.2449077,25.3018276 21.212,25.284 C21.1816786,25.2703641 21.1491711,25.2622372 21.116,25.26 L21.044,25.26 L20.996,25.26 L20.888,25.288 C20.8385763,25.3128125 20.7825285,25.3212197 20.728,25.312 C20.697992,25.3017242 20.676331,25.2754216 20.672,25.244 L20.624,25.088 L20.672,25.112 L20.776,25.136 L20.836,25.136 L20.88,25.136 L20.908,25.136 C20.9488025,25.1201082 20.992212,25.1119689 21.036,25.112 C21.0651968,25.1079979 21.0948032,25.1079979 21.124,25.112 C21.1568708,25.1147551 21.1885147,25.1257616 21.216,25.144 C21.2492678,25.162918 21.2801538,25.1857468 21.308,25.212 L21.368,25.284 L21.436,25.4 L21.536,25.368 L21.588,25.536 M21.308,25.936 L21.224,26.092 L21.072,26.012 L21.152,25.856 L21.308,25.936" id="Shape" fill="#010101" fill-rule="nonzero"></path>
            <path d="M20.732,25.9691613 L20.4884103,26.0772251 C20.4856696,26.175515 20.4664013,26.2704632 20.4328547,26.3509866 C20.4009345,26.4358745 20.3501194,26.4955796 20.2918291,26.5166844 C20.2280648,26.5529212 20.1590121,26.5529212 20.0952479,26.5166844 C20.0350825,26.4850435 19.9845336,26.4153222 19.9542222,26.3221696 L19.7790085,26.3942122 L19.732,26.0916336 L19.9072137,26.0195911 C19.9064781,25.913408 19.9293459,25.8106066 19.9713162,25.7314211 C19.9941879,25.6921941 20.0200562,25.6582761 20.0482393,25.6305615 L20.1294359,25.5657233 C20.1821862,25.5365749 20.2390787,25.5365749 20.2918291,25.5657233 C20.3514268,25.60614 20.4021702,25.6765872 20.4371282,25.7674423 L20.6849915,25.6593785 L20.732,25.9619571 M20.3046496,25.9619571 C20.2975233,25.9076719 20.2774221,25.8607521 20.249094,25.8322806 C20.2181119,25.8065225 20.1817855,25.8065225 20.1508034,25.8322806 C20.119662,25.8484885 20.0935613,25.8847241 20.0781538,25.9331401 C20.0738694,25.9566112 20.0738694,25.9817115 20.0781538,26.0051826 C20.0739497,26.0359988 20.0739497,26.0680217 20.0781538,26.0988379 C20.0869572,26.1499043 20.1048598,26.1951743 20.1294359,26.2285144 C20.160418,26.2542725 20.1967444,26.2542725 20.2277265,26.2285144 C20.2620501,26.2158206 20.2915635,26.17916 20.3089231,26.1276549 C20.3196769,26.0763789 20.3196769,26.0204373 20.3089231,25.9691613" id="Shape" fill="#010101" fill-rule="nonzero"></path>
            <path d="M19.78,26.02 L19.116,26.152 L19.192,26.52 L19.16,26.52 C19.16,26.52 19.136,26.52 19.136,26.52 C19.1082105,26.5248559 19.0797895,26.5248559 19.052,26.52 L19.052,26.52 L19.012,26.52 L18.932,26.52 L18.892,26.52 L18.844,26.52 C18.776465,26.4948743 18.71606,26.453689 18.668,26.4 C18.6269833,26.3571381 18.5944146,26.306928 18.572,26.252 L18.36,26.296 L18.328,26.124 L18.544,26.084 C18.5303247,26.0247792 18.5303247,25.9632208 18.544,25.904 L18.564,25.836 L18.6,25.772 C18.6300987,25.7282319 18.6664906,25.6891444 18.708,25.656 L18.848,25.588 L18.848,25.516 L18.78,25.452 L18.96,25.288 L19.012,25.552 L19.052,25.552 L19.116,25.552 L19.164,25.552 C19.2510779,25.5643675 19.3321547,25.603508 19.396,25.664 L19.436,25.708 L19.436,25.708 L19.46,25.744 C19.4800648,25.7832147 19.4948595,25.8249089 19.504,25.868 L19.736,25.82 L19.768,25.992 M19.344,25.896 C19.329397,25.7892233 19.2464731,25.7046734 19.14,25.688 L19.068,25.688 L19.044,25.688 L19.096,25.948 L19.364,25.892 M18.94,25.98 L18.888,25.716 C18.8470584,25.7229992 18.8093116,25.7425716 18.78,25.772 C18.7012548,25.8313955 18.6677526,25.9334975 18.696,26.028 L18.94,25.98 M19.012,26.356 L18.972,26.148 L18.748,26.192 C18.7586114,26.2236412 18.7764102,26.2523931 18.8,26.276 C18.8289937,26.3004501 18.8613173,26.3206524 18.896,26.336 L18.952,26.336 L19.012,26.336" id="Shape" fill="#010101" fill-rule="nonzero"></path>
            <path d="M18.36,26.292 L18.16,26.316 L18.16,26.348 C18.1679533,26.4047875 18.161063,26.4626668 18.14,26.516 C18.1156276,26.5718036 18.0752606,26.6191304 18.024,26.652 C17.9766524,26.6875453 17.9220046,26.7121368 17.864,26.724 C17.7865778,26.7329016 17.7083025,26.7175261 17.64,26.68 L17.608,26.68 L17.66,26.68 L17.696,26.68 L17.74,26.68 C17.7946336,26.6720565 17.8466711,26.6515154 17.892,26.62 C17.9326588,26.5904337 17.9644701,26.5503238 17.984,26.504 C18.0020423,26.4624908 18.0089362,26.4169908 18.004,26.372 L18.004,26.34 L17.604,26.392 L17.584,26.24 L17.584,26.132 C17.584,26.132 17.584,26.108 17.584,26.092 C17.588248,26.0699987 17.5978663,26.0493879 17.612,26.032 C17.6303951,26.0106741 17.6537454,25.9941915 17.68,25.984 L17.728,25.984 L17.728,25.928 C17.726923,25.9133531 17.726923,25.8986469 17.728,25.884 L17.728,25.884 C17.7359409,25.8630157 17.7482063,25.8439361 17.764,25.828 C17.7718285,25.8167865 17.7830431,25.8083756 17.796,25.804 L17.836,25.804 L17.836,25.804 L17.876,25.804 L17.964,25.804 L18.028,25.76 L18.06,25.736 L18.124,26.216 L18.328,26.188 L18.352,26.36 M17.952,26.236 L17.92,25.984 L17.92,25.984 L17.896,25.984 L17.872,25.984 L17.848,25.984 C17.8437128,25.9914256 17.8437128,26.0005744 17.848,26.008 L17.848,26.04 C17.8523482,26.0615423 17.8653669,26.0803472 17.884,26.092 L17.852,26.092 C17.8152273,26.096132 17.7841033,26.1210312 17.772,26.156 L17.772,26.22 L17.996,26.192 M17.396,26.592 C17.393887,26.6274892 17.3828828,26.6618771 17.364,26.692 C17.2986668,26.8121694 17.1764595,26.8906234 17.04,26.9 L16.936,26.9 L16.88,26.9 L16.848,26.9 L16.816,26.9 L16.764,26.9 L16.88,26.9 C16.9721919,26.8949938 17.0598133,26.8582493 17.128,26.796 C17.2001679,26.7370214 17.2426187,26.6491921 17.244,26.556 L17.244,26.524 C17.239315,26.466757 17.2200347,26.4116706 17.188,26.364 C17.1667034,26.3223902 17.1312373,26.2897613 17.088,26.272 L17.032,26.272 C17.0608075,26.2394644 17.0825947,26.2013368 17.096,26.16 L17.096,26.116 L17.096,26 C17.0991381,25.9855012 17.0991381,25.9704988 17.096,25.956 L17.096,25.92 L17.096,25.892 L17.124,25.892 L17.188,25.936 L17.244,25.992 C17.2832649,26.0326577 17.3168982,26.0783989 17.344,26.128 C17.364,26.164 17.384,26.2 17.4,26.236 C17.4121986,26.2736778 17.4202463,26.312575 17.424,26.352 L17.424,26.448 C17.4259666,26.4639396 17.4259666,26.4800604 17.424,26.496 L17.424,26.532 M16.572,26.448 L16.064,26.448 L16.064,26.276 L16.404,26.276 L16.404,26.036 L16.268,26 L16.496,25.764 L16.496,26.452 M16.496,26.744 L16.384,26.636 L16.168,26.868 L16.052,26.756 L16.16,26.644 L16.388,26.864 L16.496,26.744" id="Shape" fill="#010101" fill-rule="nonzero"></path>
            <path d="M15.724,25.516 L15.608,25.392 L15.356,25.636 L15.236,25.504 L15.36,25.388 L15.604,25.64 L15.724,25.516 M16.02,26.484 L15.22,26.484 L15.22,26.24 L15.22,26.196 L15.22,26.164 L15.22,26.132 L15.22,26.132 L15.22,26.104 C15.2313432,26.0817631 15.2462009,26.0615026 15.264,26.044 C15.3211906,25.983844 15.4010112,25.9504645 15.484,25.952 L15.548,25.952 C15.548,25.952 15.568,25.952 15.568,25.952 L15.6,25.952 L15.6,25.824 L15.54,25.764 L15.78,25.6 L15.78,26.32 L15.996,26.32 L15.996,26.496 M15.596,26.312 L15.596,26.108 C15.5699816,26.0869703 15.5374528,26.075656 15.504,26.076 C15.4622035,26.0746353 15.4216911,26.0905509 15.392,26.12 C15.361401,26.1496099 15.3428726,26.1895172 15.34,26.232 L15.34,26.304 L15.592,26.304 M14.572,25.424 L14.492,25.46 L14.436,26.4 L14.268,26.4 L14.392,25.176 L14.604,25.436 M14.076,26.376 L13.696,26.328 L13.72,26.156 L13.944,26.184 L14.044,25.412 L13.972,25.356 L14.236,25.156 L14.076,26.376" id="Shape" fill="#010101" fill-rule="nonzero"></path>
            <path d="M13.708,26.32 L13.164,26.224 L13.088,26.128 L12.996,26.192 L12.528,26.108 L12.56,25.936 L12.984,26.012 L13.332,25.8 L13.332,25.768 L13.332,25.744 L13.332,25.744 L13.332,25.744 L13.308,25.744 L13.284,25.744 L13.284,25.744 L13.284,25.744 L13.26,25.72 L13.26,25.7 L13.24,25.7 L13.22,25.7 L13.188,25.7 L13.068,25.7 C13.0483227,25.6949193 13.0276773,25.6949193 13.008,25.7 L12.984,25.7 L12.984,25.7 L12.984,25.7 L13.1,25.84 L12.976,25.912 L12.892,25.808 L12.864,25.784 L12.82,25.784 C12.7847441,25.7852479 12.7521368,25.8030337 12.732,25.832 L12.732,25.808 L12.732,25.776 C12.7347511,25.7527909 12.7480278,25.7321383 12.768,25.72 C12.7872426,25.712216 12.8087574,25.712216 12.828,25.72 L12.848,25.72 L12.848,25.68 C12.8592853,25.6510748 12.8787428,25.6260581 12.904,25.608 C12.9231397,25.5934172 12.94485,25.5825621 12.968,25.576 L13.044,25.576 L13.112,25.576 L13.18,25.544 L13.2,25.544 L13.22,25.544 L13.24,25.524 L13.26,25.5 C13.2610389,25.537025 13.2752178,25.5724723 13.3,25.6 L13.332,25.628 L13.364,25.652 L13.436,25.696 L13.436,25.696 L13.46,25.696 C13.4794719,25.7095155 13.4969724,25.7256698 13.512,25.744 C13.5329364,25.7698616 13.5429793,25.8028597 13.54,25.836 L13.54,25.836 L13.576,25.836 C13.5942689,25.8410124 13.6090975,25.8543582 13.616,25.872 C13.616,25.872 13.616,25.872 13.616,25.9 C13.6200103,25.9130318 13.6200103,25.9269682 13.616,25.94 C13.616,25.94 13.616,25.94 13.588,25.984 C13.5915589,25.9695492 13.5915589,25.9544508 13.588,25.94 C13.5763915,25.9246195 13.5591022,25.9145341 13.54,25.912 C13.5139364,25.9039795 13.4860636,25.9039795 13.46,25.912 L13.248,26.04 L13.796,26.136 L13.764,26.308" id="Path" fill="#010101" fill-rule="nonzero"></path>
            <path d="M12.532,26.104 L12.364,26.064 C12.3531378,26.1084208 12.3370243,26.15139 12.316,26.192 C12.297222,26.2265843 12.2743948,26.2588109 12.248,26.288 C12.15395,26.3961451 12.0056693,26.4398489 11.868,26.4 C11.7926679,26.3809368 11.7219344,26.3469304 11.66,26.3 L11.64,26.3 L11.668,26.3 C11.76468,26.3280013 11.86732,26.3280013 11.964,26.3 C12.0599592,26.2704276 12.1367842,26.1980348 12.172,26.104 L12.172,26.076 C12.188,26.0211429 12.188,25.9628571 12.172,25.908 C12.1626779,25.8619539 12.1371267,25.820788 12.1,25.792 L12.052,25.76 C12.0884606,25.7373939 12.1197966,25.7074204 12.144,25.672 L12.164,25.632 L12.164,25.592 L12.164,25.52 C12.1659424,25.5107677 12.1659424,25.5012323 12.164,25.492 L12.204,25.544 L12.268,25.6 L12.292,25.64 C12.325724,25.7006163 12.3474533,25.7671625 12.356,25.836 L12.356,25.896 L12.544,25.94 L12.508,26.108 M11.776,24.908 L11.688,24.936 L11.468,25.852 L11.312,25.812 L11.624,24.612 L11.792,24.896 M11.36,24.812 L11.284,24.672 L11.008,24.828 L10.932,24.688 L11.072,24.612 L11.224,24.888 L11.36,24.812 M11.124,25.76 C11.1113558,25.8032736 11.0910324,25.8439205 11.064,25.88 C11.0349618,25.9164951 10.999765,25.9476308 10.96,25.972 C10.8577632,26.0342715 10.7330106,26.0474806 10.62,26.008 C10.5281126,25.9775532 10.4473561,25.9204666 10.388,25.844 C10.3223701,25.7619021 10.3000596,25.6533247 10.328,25.552 C10.3373777,25.5242291 10.3494345,25.4974363 10.364,25.472 L10.4,25.424 L10.432,25.38 C10.4493525,25.360599 10.4617098,25.3372575 10.468,25.312 C10.4698714,25.3041094 10.4698714,25.2958906 10.468,25.288 C10.468,25.288 10.468,25.288 10.468,25.252 C10.4628504,25.2377901 10.4507678,25.2272178 10.436,25.224 C10.4285744,25.2197128 10.4194256,25.2197128 10.412,25.224 C10.3742315,25.2269362 10.3431017,25.2547892 10.336,25.292 L10.336,25.292 C10.3241132,25.2569812 10.3241132,25.2190188 10.336,25.184 C10.3439319,25.1449843 10.3734421,25.113921 10.412,25.104 L10.468,25.104 L10.468,25.044 L10.468,25.02 C10.4720491,25.0101391 10.479031,25.0017609 10.488,24.996 L10.52,24.996 L10.596,24.996 L10.616,24.996 L10.616,25.024 L10.592,25.068 L10.592,25.164 C10.5898871,25.2033151 10.5831747,25.2422473 10.572,25.28 L10.5,25.4 C10.4635359,25.4548219 10.433979,25.5139356 10.412,25.576 L10.412,25.628 C10.4105951,25.6906186 10.4369519,25.7506535 10.484,25.792 L10.484,25.792 L10.508,25.812 L10.528,25.812 L10.548,25.812 L10.588,25.812 L10.636,25.812 C10.7004613,25.8362507 10.7715387,25.8362507 10.836,25.812 C10.8650066,25.8002697 10.8919996,25.7840739 10.916,25.764 L10.916,25.764 L10.916,25.74 L10.916,25.716 C10.9185601,25.7068422 10.9185601,25.6971578 10.916,25.688 L10.552,25.584 L10.592,25.436 L10.592,25.392 L10.592,25.392 L10.592,25.368 C10.5980323,25.3502898 10.6075531,25.3339683 10.62,25.32 L10.648,25.296 L10.684,25.268 C10.6983074,25.2634087 10.7136926,25.2634087 10.728,25.268 L10.8,25.268 L10.8,25.24 L10.8,25.212 C10.8068898,25.1922084 10.8163005,25.1733868 10.828,25.156 C10.8426967,25.1326667 10.865485,25.1155756 10.892,25.108 L11.068,25.108 L11.116,25.108 L11.208,25.108 C11.2344655,25.1126324 11.2615345,25.1126324 11.288,25.108 L11.288,25.108 L11.108,25.732 L11.108,25.732 M10.996,25.508 L11.068,25.26 L10.972,25.26 C10.950634,25.2693301 10.9355374,25.2889556 10.932,25.312 L10.932,25.34 C10.9308513,25.3479588 10.9308513,25.3560412 10.932,25.364 L10.912,25.364 L10.868,25.364 L10.824,25.388 L10.824,25.388 L10.824,25.416 L10.824,25.448 L11.028,25.504" id="Shape" fill="#010101" fill-rule="nonzero"></path>
            <path d="M17.4,23.048 L17.068,23.6 L16.6,23.076 L16.14,18.932 L16.316,18.616 L16.576,18.56 L17.4,23.048 Z M14.388,23.048 L14.644,23.604 L15.196,23.08 L15.66,18.936 L15.484,18.62 L15.228,18.564 L14.388,23.048 Z M15.868,18.34 L16.388,23.08 L15.9,23.776 L15.408,23.112 L15.868,18.34 Z" id="Shape" stroke="#201B17" stroke-width="0.01" fill="#000000" fill-rule="nonzero"></path>
            <path d="M22.96,22.516 C23.2826302,23.0034283 23.68888,23.4299905 24.16,23.776 L23.524,9.724 C23.2408183,9.48874036 22.8995589,9.33399925 22.536,9.276 L22.536,9.276 L22.96,22.516 Z M21.36,10.004 C21.6065324,9.65933151 21.9548403,9.40054849 22.356,9.264 L22.732,22.372 C22.3039116,22.1415276 21.9595374,21.7817546 21.748,21.344 L21.36,10.004 Z M20.732,20.268 L20.472,11.176 L20.52,11.104 C20.8042359,10.872494 21.026838,10.574317 21.168,10.236 L21.196,10.176 C21.304,13.844 21.42,17.5 21.528,21.164 C21.248,20.904 20.864,20.68 20.732,20.268 Z M19.652,19.096 L19.428,11.696 L19.428,11.668 C19.7118855,11.642124 19.9858157,11.5503574 20.228,11.4 L20.268,11.38 L20.512,20.108 C20.1372784,19.8566702 19.8395839,19.5063599 19.652,19.096 L19.652,19.096 Z M19.416,18.78 L19.228,12.164 L19.228,12.132 C18.8339399,12.2708056 18.4098259,12.3011982 18,12.22 L18.548,17.664 C18.8028505,18.0678126 19.0933435,18.447997 19.416,18.8 L19.416,18.78 Z" id="Shape" stroke="#201B17" stroke-width="0.01" fill="#000000" fill-rule="nonzero"></path>
            <path d="M8.828,22.516 C8.50583411,23.0037981 8.09951204,23.4304363 7.628,23.776 L8.268,9.724 C8.55005364,9.4893876 8.88984891,9.33468406 9.252,9.276 L9.252,9.276 L8.828,22.516 Z M10.428,10.004 C10.096,9.604 9.788,9.264 9.428,9.264 C9.3,13.6373333 9.17333333,18.004 9.048,22.364 C9.44768941,22.0987138 9.78593896,21.7509169 10.04,21.344 L10.428,10.004 Z M11.068,20.268 L11.328,11.176 L11.28,11.104 C10.9945381,10.8736721 10.7716839,10.5751576 10.632,10.236 L10.604,10.176 L10.244,21.2 C10.6021691,20.9745566 10.888147,20.6510962 11.068,20.268 L11.068,20.268 Z M12.144,19.096 L12.368,11.696 L12.368,11.668 C12.0842356,11.6415489 11.810434,11.5498254 11.568,11.4 L11.524,11.38 L11.272,20.116 C11.6494777,19.8632172 11.9487465,19.5099138 12.136,19.096 L12.144,19.096 Z M12.384,18.78 L12.572,12.164 L12.572,12.132 C12.967414,12.2709492 13.3928512,12.3013376 13.804,12.22 L13.256,17.664 C12.9962407,18.0675231 12.7017923,18.4476292 12.376,18.8 L12.384,18.78 Z" id="Shape" stroke="#201B17" stroke-width="0.01" fill="#000000" fill-rule="nonzero"></path>
            <path d="M13.888,9.532 C13.4636968,9.63080293 13.0231581,9.63762241 12.596,9.552 C12.028,9.44 11.396,8.916 10.912,8.752 C10.428,8.588 9.928,8.228 9.12,8.576 C8.65320738,8.78137019 8.32935718,9.21773173 8.268,9.724 L7.636,23.776 C8.10092044,23.4230015 8.50608681,22.9975768 8.836,22.516 C8.836,22.516 9.824,21.948 10.036,21.344 C10.036,21.344 10.96,20.704 11.048,20.268 C11.5044746,19.9799307 11.8758956,19.5753717 12.124,19.096 C12.124,19.096 13.076,17.956 13.252,17.664" id="Path" stroke-opacity="0.99" stroke="#000000" stroke-width="0.46"></path>
            <path d="M18.532,17.664 C18.704,17.956 19.652,19.096 19.652,19.096 C19.9035567,19.5742194 20.2758934,19.9782736 20.732,20.268 C20.82,20.704 21.748,21.344 21.748,21.344 C21.976,21.948 22.948,22.516 22.948,22.516 C23.2782895,22.9972719 23.6834025,23.4226405 24.148,23.776 L23.512,9.724 C23.4533237,9.21713793 23.1329061,8.77827218 22.668,8.568 C21.868,8.22 21.336,8.568 20.868,8.744 C20.4,8.92 19.756,9.44 19.188,9.544 C18.7520235,9.62892219 18.3026817,9.61663017 17.872,9.508" id="Path" stroke-opacity="0.99" stroke="#000000" stroke-width="0.46"></path>
            <path d="M13.56,4.8 C13.5828064,4.69358229 13.640532,4.59784232 13.724,4.528 C13.984,4.352 14.564,4.408 15.14,4.56 C15.14,4.56 15.092,4.308 15.404,4.324 C15.9914112,4.34560804 16.5621202,4.52525011 17.056,4.844 C17.1391791,4.93565979 17.2055299,5.04127944 17.252,5.156 L17.252,5.156 C17.124,4.98 16.76,4.988 16.676,5 C16.5410738,5.00461052 16.4070049,5.02338015 16.276,5.056 C16.1730983,5.07006319 16.0739194,5.10402855 15.984,5.156 C15.928,5.204 15.884,5.372 15.796,5.372 C15.708,5.372 15.668,5.336 15.632,5.296 C15.596,5.256 15.56,5.156 15.516,5.164 C15.372,5.188 15.14,5.076 14.848,4.844 C14.6403545,4.63098588 14.3412026,4.53376149 14.048,4.584 C13.8553675,4.58210682 13.6730867,4.67102427 13.556,4.824 L13.56,4.8 Z" id="Path" stroke="#201B17" stroke-width="0.01" fill="#000000" fill-rule="nonzero"></path>
            <path d="M15.7,5.152 C15.7406442,5.15311417 15.7799568,5.13745799 15.8087074,5.10870738 C15.837458,5.07995677 15.8531142,5.04064423 15.852,5 C15.8530794,4.95899858 15.8375429,4.91930115 15.8089195,4.88992455 C15.7802962,4.86054795 15.7410156,4.8439858 15.7,4.844 C15.6589844,4.8439858 15.6197038,4.86054795 15.5910805,4.88992455 C15.5624571,4.91930115 15.5469206,4.95899858 15.548,5 C15.5468858,5.04064423 15.562542,5.07995677 15.5912926,5.10870738 C15.6200432,5.13745799 15.6593558,5.15311417 15.7,5.152 L15.7,5.152 Z" id="Path" stroke="#201B17" stroke-width="0.01" fill="#F6C319" fill-rule="nonzero"></path>
            <path d="M15.108,8.348 C15.0143166,8.91850093 14.8031937,9.46333429 14.488,9.948 L14.524,9.98 C14.8453364,9.49730492 15.0607346,8.95199312 15.156,8.38 C15.2430699,7.99076931 15.3071805,7.59675618 15.348,7.2 C15.348,7.2 15.248,7.732 15.108,8.34 L15.108,8.348 Z M15.68,8.32 C15.6311704,8.89810448 15.4963527,9.46568722 15.28,10.004 L15.32,10.028 C15.5406975,9.48411797 15.6756371,8.90927512 15.72,8.324 C15.7664016,7.93359247 15.7931021,7.54109485 15.8,7.148 C15.8,7.148 15.748,7.692 15.672,8.32 L15.68,8.32 Z M16.212,8.476 C16.212,8.8 16.232,9.132 16.252,9.416 C16.2595524,9.6209697 16.2876939,9.82466074 16.336,10.024 L16.384,10.024 C16.3383999,9.82833692 16.3116114,9.62876223 16.304,9.428 C16.28,9.148 16.268,8.812 16.26,8.492 C16.26,8.092 16.232,7.664 16.216,7.252 C16.216,7.252 16.192,7.848 16.216,8.492 L16.212,8.476 Z M16.828,8.448 C16.8868739,9.02136772 17.0552533,9.57810601 17.324,10.088 L17.364,10.06 C17.1037141,9.56175535 16.9395232,9.01897537 16.88,8.46 C16.788,7.872 16.732,7.376 16.732,7.376 C16.7433322,7.73488371 16.7753856,8.0928132 16.828,8.448 Z" id="Shape" fill="#000000" fill-rule="nonzero"></path>
            <path d="M17.512,10.548 C17.4389129,10.3958915 17.3825819,10.2362868 17.344,10.072 C17.6704818,10.2833894 18.0556603,10.3856368 18.444,10.364 C17.924,10.064 17.4,8.396 17.46,7.008 C17.52,5.62 17.26,5.064 17.06,4.86 C16.5661202,4.54125011 15.9954112,4.36160804 15.408,4.34 C15.092,4.34 15.144,4.576 15.144,4.576 C14.568,4.424 13.988,4.368 13.728,4.544 C13.468,4.72 13.428,5.528 13.608,5.384 C14.044,5.036 14.408,5.352 14.684,5.732 C14.96,6.112 14.9,7.008 14.568,8.108 C14.2660055,8.94631388 13.8251928,9.72787758 13.264,10.42 C13.7086008,10.3596444 14.1345841,10.2026313 14.512,9.96 L14.336,10.684 C14.6913797,10.5001793 15.0209006,10.2701872 15.316,10 L15.836,10.548 C15.9985528,10.3541228 16.1735919,10.1710667 16.36,10 C16.6583049,10.3252826 17.0714229,10.5218006 17.512,10.548 Z" id="Path" stroke="#000000" stroke-width="0.46"></path>
            <path d="M21.92,23.048 C22.04,23.22 21.864,23.448 21.776,23.572 C21.688,23.696 20.176,24.064 19.316,24.212 C18.264,24.384 16.876,24.476 16.476,24.528 C16.248,24.556 16.1,24.356 16.1,24.128 C16.0900419,24.0191646 16.1289742,23.9115336 16.2062539,23.8342539 C16.2835336,23.7569742 16.3911646,23.7180419 16.5,23.728 C16.5,23.728 16.672,23.7 16.672,23.816 C16.7520483,23.738885 16.8540904,23.6885628 16.964,23.672 C17.108,23.672 17.228,23.728 17.228,23.848 C17.228,23.848 17.34,23.644 17.488,23.612 C17.636,23.58 17.836,23.612 17.86,23.728 C17.9736732,23.7075224 18.0831604,23.6683233 18.184,23.612 C18.3266472,23.5163601 18.5159691,23.5295304 18.644,23.644 C18.7966339,23.5856744 18.9529792,23.5375682 19.112,23.5 C19.256,23.468 19.54,23.412 19.572,23.524 C19.572,23.524 19.66,23.296 19.804,23.268 C19.948,23.24 20.292,23.096 20.444,23.24 C20.444,23.24 20.556,23.064 20.644,23.064 C20.732,23.064 20.936,23.008 20.964,23.096 C21.0456262,22.9629567 21.1847004,22.8756654 21.34,22.86 C21.6,22.832 21.772,22.832 21.916,23.032 L21.92,23.048 Z" id="Path" stroke="#000000" stroke-width="0.46" fill="url(#linearGradient-2)" fill-rule="nonzero"></path>
            <path d="M21.324,23.22 L21.304,23.22 C21.2518046,23.2074825 21.2104776,23.1676861 21.196,23.116 C21.1879857,23.0731187 21.1965646,23.0287942 21.22,22.992 C21.2485986,22.9412521 21.2850496,22.8953509 21.328,22.856 L21.36,22.892 C21.3220061,22.9283243 21.2896493,22.9701185 21.264,23.016 C21.2448101,23.0410089 21.2375045,23.0731536 21.244,23.104 C21.244,23.128 21.268,23.152 21.312,23.172 C21.3921503,23.1310968 21.4837511,23.1184136 21.572,23.136 C21.4857924,23.1521903 21.402302,23.1804693 21.324,23.22 L21.324,23.22 Z M20.452,23.404 C20.4559696,23.3788222 20.4559696,23.3531778 20.452,23.328 C20.4497697,23.307356 20.441411,23.2878523 20.428,23.272 L20.456,23.232 C20.4820445,23.2557987 20.4978215,23.2887871 20.5,23.324 C20.5038911,23.3545432 20.5038911,23.3854568 20.5,23.416 C20.5022083,23.4252027 20.5022083,23.4347973 20.5,23.444 C20.5776601,23.4094306 20.6663399,23.4094306 20.744,23.444 C20.6726536,23.447151 20.601718,23.4565199 20.532,23.472 C20.4895011,23.4865395 20.452034,23.5129052 20.424,23.548 C20.444,23.484 20.452,23.44 20.464,23.396 L20.452,23.404 Z M19.876,23.564 L19.876,23.564 L19.876,23.564 C19.840889,23.5418107 19.8174432,23.5051767 19.812,23.464 C19.8024908,23.4286279 19.8024908,23.3913721 19.812,23.356 C19.8307871,23.3146205 19.8564883,23.276745 19.888,23.244 L19.924,23.276 C19.896395,23.3071743 19.8734869,23.3422101 19.856,23.38 C19.8485494,23.4047855 19.8485494,23.4312145 19.856,23.456 C19.8602038,23.4786607 19.8731298,23.4987678 19.892,23.512 C19.9655483,23.4485757 20.0744517,23.4485757 20.148,23.512 C20.0623523,23.4889593 19.9708656,23.5066664 19.9,23.56 L19.876,23.564 Z M18.148,23.796 C18.1672596,23.756443 18.1820186,23.7148493 18.192,23.672 L18.192,23.672 L18.192,23.672 L18.192,23.628 C18.192,23.628 18.212,23.628 18.22,23.628 C18.2303803,23.6311378 18.2390418,23.6383557 18.244,23.648 C18.2515567,23.6659019 18.2515567,23.6860981 18.244,23.704 C18.2339723,23.751225 18.2178366,23.7969429 18.196,23.84 C18.176,23.888 18.168,23.9 18.148,23.94 C18.2840072,23.8986194 18.4277034,23.8890396 18.568,23.912 C18.424,23.948 18.296,23.94 18.168,23.988 C18.1505647,23.9927325 18.1342471,24.0008913 18.12,24.012 C18.119276,24.0226544 18.119276,24.0333456 18.12,24.044 L18.072,24.124 C18.0684285,24.0907623 18.0684285,24.0572377 18.072,24.024 C18.072,23.952 18.132,23.92 18.172,23.82 L18.148,23.796 Z M17.484,23.716 C17.5074076,23.6754334 17.5356102,23.63783 17.568,23.604 L17.604,23.636 C17.5736359,23.6676588 17.546811,23.7025311 17.524,23.74 C17.487905,23.8043985 17.4751865,23.8792963 17.488,23.952 C17.4324743,23.8831313 17.4324743,23.7848687 17.488,23.716 L17.484,23.716 Z" id="Shape" fill="#000000" fill-rule="nonzero"></path>
            <path d="M21.776,23.256 C21.6797716,23.3914696 21.6689131,23.569859 21.748,23.716 C21.864,23.888 21.868,24 21.748,24.116 C22.0102851,24.051149 22.1823073,23.7999966 22.148,23.532 C22.124,23.048 21.868,23.112 21.776,23.256 Z" id="Path" stroke="#845522" stroke-width="0.46" fill="#E08D26" fill-rule="nonzero"></path>
            <path d="M21.948,23.252 C22.1024167,23.4373905 22.1024167,23.7066095 21.948,23.892 C21.888,23.7 21.696,23.492 21.868,23.308 C21.8831201,23.2766968 21.9134123,23.2554923 21.948,23.252 L21.948,23.252 Z" id="Path" fill="#EE9C22" fill-rule="nonzero"></path>
            <path d="M21.928,23.392 C21.984,23.48 21.964,23.792 21.9,23.556 C21.868,23.508 21.888,23.408 21.928,23.392 Z" id="Path" fill="#F0A83E" fill-rule="nonzero"></path>
            <path d="M19.14,23.628 C18.968,23.66 18.968,23.804 19.052,24.028 C19.136,24.252 19.284,24.46 19.196,24.632 C19.196,24.632 19.692,24.372 19.544,23.944 C19.396,23.516 19.316,23.596 19.144,23.62 L19.14,23.628 Z" id="Path" stroke="#845522" stroke-width="0.46" fill="#E08D26" fill-rule="nonzero"></path>
            <path d="M19.3,23.704 C19.4025358,23.797243 19.4609894,23.9294076 19.4609894,24.068 C19.4609894,24.2065924 19.4025358,24.338757 19.3,24.432 C19.268,24.196 19.036,23.972 19.108,23.736 C19.1706411,23.7183615 19.2350243,23.7076309 19.3,23.704 Z" id="Path" fill="#EE9C22" fill-rule="nonzero"></path>
            <path d="M19.272,23.82 C19.3638823,23.9316514 19.3925303,24.0824302 19.348,24.22 C19.312,24.1 19.164,23.928 19.228,23.82 L19.264,23.82 L19.272,23.82 Z" id="Path" fill="#F0A83E" fill-rule="nonzero"></path>
            <path d="M16.504,24 C16.372,23.944 16.104,24.22 16.104,24.372 C16.0962224,24.6395783 16.2557979,24.8837288 16.504,24.984 C16.504,24.984 16.392,24.46 16.504,24.432 C16.5966445,24.4006925 16.6590068,24.3137915 16.6590068,24.216 C16.6590068,24.1182085 16.5966445,24.0313075 16.504,24 L16.504,24 Z" id="Path" stroke="#845522" stroke-width="0.46" fill="#E08D26" fill-rule="nonzero"></path>
            <path d="M16.468,24.1 C16.672,24.172 16.5,24.352 16.392,24.412 C16.3535403,24.5348226 16.3439581,24.6648667 16.364,24.792 C16.148,24.576 16.116,24.212 16.468,24.1 L16.468,24.1 Z" id="Path" fill="#EE9C22" fill-rule="nonzero"></path>
            <path d="M16.46,24.212 C16.396,24.34 16.244,24.36 16.408,24.236 C16.412,24.232 16.464,24.196 16.46,24.212 Z" id="Path" fill="#F0A83E" fill-rule="nonzero"></path>
            <path d="M15.896,10.592 C16.696,11.12 18.608,11.844 19.556,11.652 C19.6172105,14.623915 18.2577136,17.4469142 15.896,19.252 C13.5347586,17.4469155 12.1765433,14.6234919 12.24,11.652 C13.184,11.844 15.108,11.12 15.896,10.592 Z" id="Path" stroke="#715A24" stroke-width="0.46" fill="#FFFFFF" fill-rule="nonzero"></path>
            <path d="M15.896,10.82 C16.4355208,11.1383667 17.0099899,11.393388 17.608,11.58 C18.1706679,11.7827001 18.7661226,11.8790037 19.364,11.864 C19.3490625,14.6407975 18.0731295,17.2603601 15.896,18.984 C13.7188705,17.2603601 12.4429375,14.6407975 12.428,11.864 C13.0272035,11.8793148 13.6240261,11.7830094 14.188,11.58 C14.7847574,11.3934361 15.3579071,11.1384047 15.896,10.82 L15.896,10.82 Z" id="Path" fill="#FFFFFF" fill-rule="nonzero"></path>
            <path d="M13.572,16.248 C14.1581047,17.3047178 14.9480175,18.2346667 15.896,18.984 C16.8450995,18.2358246 17.6352186,17.3056327 18.22,16.248 L13.572,16.248 Z" id="Path" fill="#010101" fill-rule="nonzero"></path>
            <path d="M15.896,10.82 C15.3588292,11.1453331 14.7856457,11.4070913 14.188,11.6 C13.6240261,11.8030094 13.0272035,11.8993148 12.4279587,11.884 C12.4263885,12.3977511 12.4719126,12.9105668 12.564,13.416 L19.228,13.416 C19.3200874,12.9105668 19.3656115,12.3977511 19.3640413,11.884 C18.7661226,11.8990037 18.1706679,11.8027001 17.608,11.6 C17.0099899,11.413388 16.4355208,11.1583667 15.896,10.84 L15.896,10.82 Z" id="Path" fill="#CE2029" fill-rule="nonzero"></path>
            <path d="M17.036,14.352 C17.0218401,14.3458361 17.0094597,14.3362069 17,14.324 C17,14.324 17,14.324 17.032,14.324 C17.0819359,14.3443394 17.1390506,14.3350776 17.18,14.3 L17.216,14.268 L17.26,14.288 C17.284,14.288 17.308,14.312 17.316,14.288 C17.324,14.264 17.376,14.232 17.372,14.216 C17.368,14.2 17.392,14.216 17.4,14.216 C17.4088868,14.2371323 17.4082807,14.2610617 17.3983355,14.2817171 C17.3883904,14.3023725 17.3700618,14.3177688 17.348,14.324 C17.3235738,14.3335879 17.2964262,14.3335879 17.272,14.324 C17.232,14.324 17.224,14.324 17.204,14.324 C17.1525045,14.3557649 17.0874955,14.3557649 17.036,14.324 L17.036,14.352 Z M17.2,14.204 C17.1795372,14.168898 17.1698032,14.1285715 17.172,14.088 C17.172,14.088 17.172,14.088 17.196,14.088 C17.22,14.088 17.228,14.112 17.224,14.172 C17.22,14.232 17.224,14.236 17.2,14.216 L17.2,14.204 Z M15.296,14.148 C15.3101452,14.2078882 15.3457146,14.2605309 15.396,14.296 C15.372,14.296 15.348,14.296 15.328,14.296 C15.216,14.408 14.808,14.8 14.736,14.896 C14.956,14.896 15.2,14.896 15.404,14.896 C15.404,14.748 15.544,14.74 15.64,14.684 C15.688,14.76 15.812,14.756 15.828,14.872 L15.828,15.368 L13.952,15.368 C13.9371145,15.4440716 13.8909261,15.5103773 13.8247282,15.5507048 C13.7585303,15.5910322 13.6784254,15.6016638 13.604,15.58 C13.66,15.52 13.756,15.5 13.788,15.416 C13.8064129,15.2729985 13.7659947,15.1286474 13.676,15.016 C13.7480765,14.9910709 13.8156234,14.9545956 13.876,14.908 C13.812,15.108 14.048,15.088 14.224,15.084 C14.224,15.016 14.224,14.936 14.176,14.924 C14.244,14.9 14.252,14.892 14.36,14.8 L14.36,15.08 L15.66,15.08 C15.66,14.996 15.684,14.844 15.616,14.844 C15.548,14.844 15.616,15.016 15.564,15.016 L14.56,15.016 L14.56,14.844 C14.6,14.804 14.596,14.804 14.888,14.516 C14.916,14.488 15.12,14.304 15.288,14.116 L15.296,14.148 Z M17.804,14.148 C17.8707504,14.1923172 17.9417715,14.2298378 18.016,14.26 C18.016,14.292 17.976,14.308 17.968,14.344 L17.968,15.104 C18.064,15.104 18.084,15.068 18.128,15.04 C18.128,15.16 18.22,15.28 18.216,15.376 L17.816,15.376 L17.816,14.144 L17.804,14.148 Z M17.26,14.548 C17.26,14.548 17.408,14.424 17.408,14.416 L17.408,15.08 L17.516,15.08 C17.516,14.828 17.516,14.572 17.516,14.336 C17.5725065,14.2915307 17.6235307,14.2405065 17.668,14.184 L17.668,15.384 L16.724,15.384 C16.724,15.136 16.724,14.884 16.996,14.936 L16.996,14.836 C16.996,14.836 16.972,14.836 16.968,14.836 C17.0257007,14.7761466 17.0871587,14.7200328 17.152,14.668 L17.152,15.108 L17.264,15.108 C17.264,15.108 17.264,14.592 17.264,14.576 L17.26,14.548 Z M16.896,15.076 C16.92,15.112 17.008,15.112 17,15.048 C16.992,14.984 16.876,15.016 16.896,15.076 L16.896,15.076 Z" id="Shape" fill="#129B4A" fill-rule="nonzero"></path>
            <circle id="Oval" fill="#129B4A" fill-rule="nonzero" cx="14.18" cy="15.512" r="1"></circle>
            <path d="M15.956,14.144 C16.0207991,14.1892023 16.0905931,14.2267837 16.164,14.256 C16.164,14.292 16.124,14.304 16.116,14.344 L16.116,15.1 C16.212,15.1 16.232,15.068 16.276,15.036 C16.276,15.16 16.368,15.28 16.364,15.372 L15.964,15.372 L15.964,14.144 L15.956,14.144 Z" id="Path" fill="#129B4A" fill-rule="nonzero"></path>
            <path d="M15.896,10.82 C16.4355208,11.1383667 17.0099899,11.393388 17.608,11.58 C18.1706679,11.7827001 18.7661226,11.8790037 19.364,11.864 C19.3490625,14.6407975 18.0731295,17.2603601 15.896,18.984 C13.7188705,17.2603601 12.4429375,14.6407975 12.428,11.864 C13.0272035,11.8793148 13.6240261,11.7830094 14.188,11.58 C14.7847574,11.3934361 15.3579071,11.1384047 15.896,10.82 L15.896,10.82 Z" id="Path" stroke="#715A24" stroke-width="0.46"></path>
            <path d="M9.868,23.048 C9.752,23.22 9.924,23.448 10.012,23.572 C10.1,23.696 11.612,24.064 12.476,24.212 C13.524,24.384 14.912,24.476 15.312,24.528 C15.544,24.556 15.692,24.356 15.692,24.128 C15.7019581,24.0191646 15.6630258,23.9115336 15.5857461,23.8342539 C15.5084664,23.7569742 15.4008354,23.7180419 15.292,23.728 C15.292,23.728 15.116,23.7 15.116,23.816 C15.0365899,23.7379813 14.934238,23.6875064 14.824,23.672 C14.68,23.672 14.564,23.728 14.564,23.848 C14.564,23.848 14.452,23.644 14.3,23.612 C14.148,23.58 13.952,23.612 13.928,23.728 C13.8144941,23.7068995 13.7051057,23.6677357 13.604,23.612 C13.4593267,23.5243219 13.2751398,23.5371349 13.144,23.644 C12.9927888,23.5855018 12.837762,23.5373901 12.68,23.5 C12.536,23.468 12.248,23.412 12.216,23.524 C12.216,23.524 12.132,23.296 11.988,23.268 C11.844,23.24 11.496,23.096 11.348,23.24 C11.348,23.24 11.236,23.064 11.148,23.064 C11.06,23.064 10.856,23.008 10.824,23.096 C10.7432063,22.9640012 10.6058414,22.8768558 10.452,22.86 C10.192,22.832 10.016,22.832 9.872,23.032 L9.868,23.048 Z" id="Path" stroke="#000000" stroke-width="0.46" fill="url(#linearGradient-3)" fill-rule="nonzero"></path>
            <path d="M10.472,23.22 L10.492,23.22 C10.542667,23.2047818 10.5828813,23.1660569 10.6,23.116 C10.6062129,23.0731429 10.597755,23.029444 10.576,22.992 C10.5474014,22.9412521 10.5109504,22.8953509 10.468,22.856 L10.436,22.892 C10.4727021,22.9294691 10.5049188,22.9710824 10.532,23.016 C10.5404449,23.0447255 10.5404449,23.0752745 10.532,23.104 C10.5189087,23.135975 10.4926703,23.1607557 10.46,23.172 C10.3798497,23.1310968 10.2882489,23.1184136 10.2,23.136 C10.2873737,23.1526228 10.3721273,23.180874 10.452,23.22 L10.472,23.22 Z M11.344,23.404 C11.3400952,23.3788171 11.3400952,23.3531829 11.344,23.328 C11.345768,23.3064225 11.3557988,23.2863609 11.372,23.272 L11.34,23.232 C11.3139555,23.2557987 11.2981785,23.2887871 11.296,23.324 C11.290262,23.3543983 11.290262,23.3856017 11.296,23.416 C11.296,23.416 11.296,23.416 11.296,23.444 C11.2182351,23.4099276 11.1297649,23.4099276 11.052,23.444 C11.1233591,23.4470058 11.1943074,23.4563763 11.264,23.472 C11.3064989,23.4865395 11.343966,23.5129052 11.372,23.548 C11.3595848,23.5006509 11.3502321,23.4525514 11.344,23.404 Z M11.916,23.564 L11.916,23.564 L11.916,23.564 C11.9518721,23.5418703 11.9766069,23.5054955 11.984,23.464 C11.9851002,23.4269865 11.9782814,23.390165 11.964,23.356 C11.9433922,23.3156695 11.9178642,23.2780493 11.888,23.244 L11.852,23.276 C11.8776386,23.3078256 11.899143,23.3427703 11.916,23.38 C11.9234506,23.4047855 11.9234506,23.4312145 11.916,23.456 C11.9138685,23.4794267 11.9004275,23.500335 11.88,23.512 C11.8064517,23.4485757 11.6975483,23.4485757 11.624,23.512 C11.7096241,23.4883323 11.8013902,23.5060935 11.872,23.56 L11.916,23.564 Z M13.644,23.796 C13.6257471,23.7564184 13.6123175,23.7147866 13.604,23.672 L13.604,23.672 L13.604,23.628 C13.604,23.628 13.604,23.628 13.576,23.628 C13.5663743,23.6324304 13.5580936,23.639331 13.552,23.648 C13.543957,23.6658003 13.543957,23.6861997 13.552,23.704 C13.560482,23.7511063 13.5752822,23.7968524 13.596,23.84 C13.616,23.888 13.624,23.9 13.644,23.94 C13.5144193,23.900975 13.3777539,23.8914084 13.244,23.912 C13.384,23.948 13.512,23.94 13.644,23.988 C13.6606051,23.9917738 13.6758371,24.0000821 13.688,24.012 L13.688,24.044 L13.736,24.124 C13.7401831,24.0907979 13.7401831,24.0572021 13.736,24.024 C13.7052576,23.9540697 13.6705341,23.8859581 13.632,23.82 L13.644,23.796 Z M14.312,23.716 C14.288501,23.6744301 14.2588299,23.6366669 14.224,23.604 L14.192,23.636 C14.2217815,23.6671863 14.2473338,23.7021526 14.268,23.74 C14.3051599,23.8040223 14.3192762,23.8788388 14.308,23.952 C14.3605595,23.8825897 14.3621771,23.7871516 14.312,23.716 L14.312,23.716 Z" id="Shape" fill="#000000" fill-rule="nonzero"></path>
            <path d="M10.016,23.256 C10.1135099,23.3906866 10.125922,23.5691094 10.048,23.716 C9.928,23.888 9.928,24 10.048,24.116 C9.78571485,24.051149 9.61369267,23.7999966 9.648,23.532 C9.668,23.048 9.928,23.112 10.016,23.256 Z" id="Path" stroke="#845522" stroke-width="0.46" fill="#E08D26" fill-rule="nonzero"></path>
            <path d="M9.868,23.252 C9.71358327,23.4373905 9.71358327,23.7066095 9.868,23.892 C9.932,23.7 10.12,23.492 9.948,23.308 C9.93352822,23.2761517 9.902878,23.2546966 9.868,23.252 L9.868,23.252 Z" id="Path" fill="#EE9C22" fill-rule="nonzero"></path>
            <path d="M9.868,23.392 C9.816,23.48 9.832,23.792 9.896,23.556 C9.912,23.508 9.908,23.408 9.868,23.392 Z" id="Path" fill="#F0A83E" fill-rule="nonzero"></path>
            <path d="M12.668,23.628 C12.844,23.66 12.844,23.804 12.756,24.028 C12.668,24.252 12.524,24.46 12.612,24.632 C12.612,24.632 12.116,24.372 12.264,23.944 C12.412,23.516 12.496,23.596 12.664,23.62 L12.668,23.628 Z" id="Path" stroke="#845522" stroke-width="0.46" fill="#E08D26" fill-rule="nonzero"></path>
            <path d="M12.496,23.704 C12.3934642,23.797243 12.3350106,23.9294076 12.3350106,24.068 C12.3350106,24.2065924 12.3934642,24.338757 12.496,24.432 C12.532,24.196 12.764,23.972 12.692,23.736 C12.6280615,23.718071 12.5623208,23.7073378 12.496,23.704 Z" id="Path" fill="#EE9C22" fill-rule="nonzero"></path>
            <path d="M12.52,23.82 C12.4301432,23.9325913 12.4016988,24.0822987 12.444,24.22 C12.484,24.1 12.632,23.928 12.568,23.82 L12.532,23.82 L12.52,23.82 Z" id="Path" fill="#F0A83E" fill-rule="nonzero"></path>
            <path d="M15.292,24 C15.424,23.944 15.692,24.22 15.692,24.372 C15.6997776,24.6395783 15.5402021,24.8837288 15.292,24.984 C15.292,24.984 15.404,24.46 15.292,24.432 C15.1993555,24.4006925 15.1369932,24.3137915 15.1369932,24.216 C15.1369932,24.1182085 15.1993555,24.0313075 15.292,24 L15.292,24 Z" id="Path" stroke="#845522" stroke-width="0.46" fill="#E08D26" fill-rule="nonzero"></path>
            <path d="M15.328,24.1 C15.124,24.172 15.296,24.352 15.404,24.412 C15.442466,24.5348892 15.4506992,24.6652478 15.428,24.792 C15.644,24.576 15.676,24.212 15.328,24.1 L15.328,24.1 Z" id="Path" fill="#EE9C22" fill-rule="nonzero"></path>
            <path d="M15.336,24.212 C15.4,24.34 15.548,24.36 15.388,24.236 C15.38,24.232 15.328,24.196 15.336,24.212 Z" id="Path" fill="#F0A83E" fill-rule="nonzero"></path>
        </g>
    </g>
</svg>